<svg width="16" height="16" viewBox="0 0 16 16" fill="none" xmlns="http://www.w3.org/2000/svg">
<path d="M15.2712 11.5776C15.1283 11.4016 14.8883 11.3365 14.6771 11.4123C14.0851 11.6245 13.4429 11.7333 12.7667 11.7333C9.53147 11.7333 6.9 9.1008 6.9 5.86667C6.9 3.92 7.86107 2.10773 9.47067 1.0176C9.65307 0.893867 9.74053 0.670933 9.69147 0.456533C9.6424 0.242133 9.4664 0.08 9.24773 0.048C8.99813 0.0117333 8.7496 0 8.5 0C4.08827 0 0.5 3.58827 0.5 8C0.5 12.4117 4.08827 16 8.5 16C11.3 16 13.8472 14.5771 15.3117 12.1941C15.4301 12.0011 15.4131 11.7547 15.2712 11.5776Z" fill="var(--foreground)"/>
</svg>
